<svg id="Layer_1" data-name="Layer 1" xmlns="http://www.w3.org/2000/svg" width="96" height="28" viewBox="0 0 96 28"><defs><style>.cls-1{fill:#828282;}</style></defs><title>BBDO</title><path class="cls-1" d="M91.289,4.43a14.477,14.477,0,0,0-19.871.035,13.222,13.222,0,0,0-3.333,5.5,12.36,12.36,0,0,0-3.285-5.3A14.239,14.239,0,0,0,54.818.929H44.492v15.5a6.858,6.858,0,0,0-3.34-3.109,6.244,6.244,0,0,0,2.6-5.274v-.07a6.378,6.378,0,0,0-2.433-5.165,10.2,10.2,0,0,0-6.4-1.883H22.745v15.5a6.855,6.855,0,0,0-3.338-3.108,6.251,6.251,0,0,0,2.6-5.274v-.07a6.367,6.367,0,0,0-2.431-5.164A10.194,10.194,0,0,0,13.179.93H1V27.071H13.466a12.413,12.413,0,0,0,7.12-1.817,6.359,6.359,0,0,0,2.159-2.526v4.343H35.213a12.4,12.4,0,0,0,7.121-1.817,6.355,6.355,0,0,0,2.158-2.525v4.342H54.824A14.18,14.18,0,0,0,64.8,23.3a12.456,12.456,0,0,0,3.258-5.257,13.108,13.108,0,0,0,3.321,5.527A13.914,13.914,0,0,0,81.3,27.5h.006a13.989,13.989,0,0,0,9.951-3.965A13.339,13.339,0,0,0,95.191,14V13.93A13.268,13.268,0,0,0,91.289,4.43ZM7.536,6.931H12.36a4.006,4.006,0,0,1,2.324.557A1.6,1.6,0,0,1,15.365,8.9v.071a1.613,1.613,0,0,1-.788,1.509A5,5,0,0,1,12,11.02H7.536Zm9.221,12.026a1.707,1.707,0,0,1-.771,1.554,4.62,4.62,0,0,1-2.52.56H7.537v-4.3h5.75a4.816,4.816,0,0,1,2.745.617,1.683,1.683,0,0,1,.725,1.5ZM29.282,6.931h4.825a4.009,4.009,0,0,1,2.323.558A1.607,1.607,0,0,1,37.113,8.9v.07a1.617,1.617,0,0,1-.791,1.512,4.961,4.961,0,0,1-2.571.533H29.282ZM38.5,18.955a1.712,1.712,0,0,1-.771,1.558,4.62,4.62,0,0,1-2.52.558H29.282v-4.3h5.75a4.828,4.828,0,0,1,2.746.617,1.684,1.684,0,0,1,.726,1.5Zm23.242-4.884c-.033,4.134-2.715,6.824-6.928,6.856H51.172V7.073h3.646A6.566,6.566,0,0,1,61.746,14Zm26.518,0a6.866,6.866,0,0,1-6.895,7.178A6.984,6.984,0,0,1,74.408,14V13.93A6.865,6.865,0,0,1,81.3,6.752,6.986,6.986,0,0,1,88.264,14v.069Z"/></svg>